<?xml version="1.0" encoding="UTF-8" standalone="no"?>
<svg
   width="24"
   height="24"
   viewBox="0 0 24 24"
   fill="none"
   stroke="currentColor"
   stroke-width="2"
   stroke-linecap="round"
   stroke-linejoin="round"
   class="lucide lucide-house-wifi-icon lucide-house-wifi"
   version="1.1"
   id="svg4"
   sodipodi:docname="house-wifi.svg"
   inkscape:export-filename="house-wifi.png"
   inkscape:export-xdpi="4096"
   inkscape:export-ydpi="4096"
   inkscape:version="1.3.2 (091e20e, 2023-11-25, custom)"
   xmlns:inkscape="http://www.inkscape.org/namespaces/inkscape"
   xmlns:sodipodi="http://sodipodi.sourceforge.net/DTD/sodipodi-0.dtd"
   xmlns:xlink="http://www.w3.org/1999/xlink"
   xmlns="http://www.w3.org/2000/svg"
   xmlns:svg="http://www.w3.org/2000/svg">
  <defs
     id="defs4">
    <linearGradient
       id="linearGradient13"
       inkscape:collect="always">
      <stop
         style="stop-color:#1e90ff;stop-opacity:1;"
         offset="0"
         id="stop13" />
      <stop
         style="stop-color:#48d1cc;stop-opacity:1;"
         offset="1"
         id="stop14" />
    </linearGradient>
    <linearGradient
       inkscape:collect="always"
       xlink:href="#linearGradient13"
       id="linearGradient14"
       x1="1.9999999"
       y1="11.501909"
       x2="22"
       y2="11.501909"
       gradientUnits="userSpaceOnUse" />
  </defs>
  <sodipodi:namedview
     id="namedview4"
     pagecolor="#ffffff"
     bordercolor="#000000"
     borderopacity="0.25"
     inkscape:showpageshadow="2"
     inkscape:pageopacity="0.0"
     inkscape:pagecheckerboard="0"
     inkscape:deskcolor="#d1d1d1"
     inkscape:zoom="34.916667"
     inkscape:cx="12"
     inkscape:cy="11.98568"
     inkscape:window-width="1920"
     inkscape:window-height="1430"
     inkscape:window-x="-11"
     inkscape:window-y="9"
     inkscape:window-maximized="1"
     inkscape:current-layer="svg4" />
  <path
     id="path4"
     style="fill:none;stroke:url(#linearGradient14)"
     d="m 7,10.754 a 8,8 0 0 1 10,0 M 3,10 A 2,2 0 0 1 3.709,8.472 l 7,-5.999 a 2,2 0 0 1 2.582,0 l 7,5.999 A 2,2 0 0 1 21,10 v 9 a 2,2 0 0 1 -2,2 H 5 A 2,2 0 0 1 3,19 Z m 9,7 h 0.01 M 9.5,13.866 a 4,4 0 0 1 5,0.01" />
</svg>
